<mxfile host="app.diagrams.net" modified="2024-08-20T18:21:37.085Z" agent="Mozilla/5.0 (Windows NT 10.0; Win64; x64) AppleWebKit/537.36 (KHTML, like Gecko) Chrome/127.0.0.0 Safari/537.36 Edg/127.0.0.0" etag="qRJ5hIXLLT8vJy7nA4_K" version="24.5.5" type="github">
  <diagram name="Page-1" id="kM6MfTMlQktqoh9Gep66">
    <mxGraphModel dx="883" dy="619" grid="1" gridSize="10" guides="1" tooltips="1" connect="1" arrows="1" fold="1" page="1" pageScale="1" pageWidth="850" pageHeight="1100" math="0" shadow="0">
      <root>
        <mxCell id="0" />
        <mxCell id="1" parent="0" />
        <mxCell id="8j1ghaPHFoplYqHseJS_-13" value="" style="edgeStyle=orthogonalEdgeStyle;rounded=0;orthogonalLoop=1;jettySize=auto;html=1;" parent="1" source="8j1ghaPHFoplYqHseJS_-2" target="8j1ghaPHFoplYqHseJS_-9" edge="1">
          <mxGeometry relative="1" as="geometry" />
        </mxCell>
        <mxCell id="8j1ghaPHFoplYqHseJS_-2" value="" style="verticalLabelPosition=bottom;outlineConnect=0;align=center;dashed=0;html=1;verticalAlign=top;shape=mxgraph.pid.misc.ship;fillColor=#f8cecc;strokeColor=#b85450;" parent="1" vertex="1">
          <mxGeometry x="285" y="64" width="105" height="60" as="geometry" />
        </mxCell>
        <mxCell id="8j1ghaPHFoplYqHseJS_-11" value="" style="edgeStyle=orthogonalEdgeStyle;rounded=0;orthogonalLoop=1;jettySize=auto;html=1;" parent="1" source="8j1ghaPHFoplYqHseJS_-3" target="8j1ghaPHFoplYqHseJS_-9" edge="1">
          <mxGeometry relative="1" as="geometry" />
        </mxCell>
        <mxCell id="8j1ghaPHFoplYqHseJS_-3" value="Port" style="html=1;whiteSpace=wrap;strokeColor=none;fillColor=#0079D6;labelPosition=center;verticalLabelPosition=middle;verticalAlign=top;align=center;fontSize=12;outlineConnect=0;spacingTop=-6;fontColor=#FFFFFF;sketch=0;shape=mxgraph.sitemap.map;" parent="1" vertex="1">
          <mxGeometry x="120" y="160" width="120" height="70" as="geometry" />
        </mxCell>
        <mxCell id="8j1ghaPHFoplYqHseJS_-4" value="Vessel" style="text;strokeColor=none;fillColor=none;html=1;fontSize=24;fontStyle=1;verticalAlign=middle;align=center;" parent="1" vertex="1">
          <mxGeometry x="272.5" y="30" width="130" height="40" as="geometry" />
        </mxCell>
        <mxCell id="8j1ghaPHFoplYqHseJS_-80" value="" style="edgeStyle=orthogonalEdgeStyle;rounded=0;orthogonalLoop=1;jettySize=auto;html=1;" parent="1" source="8j1ghaPHFoplYqHseJS_-5" target="8j1ghaPHFoplYqHseJS_-2" edge="1">
          <mxGeometry relative="1" as="geometry" />
        </mxCell>
        <mxCell id="8j1ghaPHFoplYqHseJS_-5" value="" style="image;aspect=fixed;html=1;points=[];align=center;fontSize=12;image=img/lib/azure2/iot/Time_Series_Data_Sets.svg;" parent="1" vertex="1">
          <mxGeometry x="500" y="60" width="51.2" height="68" as="geometry" />
        </mxCell>
        <mxCell id="8j1ghaPHFoplYqHseJS_-8" value="" style="edgeStyle=orthogonalEdgeStyle;rounded=0;orthogonalLoop=1;jettySize=auto;html=1;" parent="1" source="8j1ghaPHFoplYqHseJS_-7" target="8j1ghaPHFoplYqHseJS_-3" edge="1">
          <mxGeometry relative="1" as="geometry" />
        </mxCell>
        <mxCell id="8j1ghaPHFoplYqHseJS_-17" style="edgeStyle=orthogonalEdgeStyle;rounded=0;orthogonalLoop=1;jettySize=auto;html=1;entryX=0;entryY=0.5;entryDx=0;entryDy=0;" parent="1" source="8j1ghaPHFoplYqHseJS_-7" target="8j1ghaPHFoplYqHseJS_-15" edge="1">
          <mxGeometry relative="1" as="geometry">
            <Array as="points">
              <mxPoint x="36" y="310" />
            </Array>
          </mxGeometry>
        </mxCell>
        <mxCell id="8j1ghaPHFoplYqHseJS_-32" style="edgeStyle=orthogonalEdgeStyle;rounded=0;orthogonalLoop=1;jettySize=auto;html=1;" parent="1" source="8j1ghaPHFoplYqHseJS_-7" target="8j1ghaPHFoplYqHseJS_-25" edge="1">
          <mxGeometry relative="1" as="geometry">
            <Array as="points">
              <mxPoint x="36" y="470" />
            </Array>
          </mxGeometry>
        </mxCell>
        <mxCell id="8j1ghaPHFoplYqHseJS_-7" value="" style="image;aspect=fixed;html=1;points=[];align=center;fontSize=12;image=img/lib/azure2/iot/Time_Series_Data_Sets.svg;" parent="1" vertex="1">
          <mxGeometry x="10" y="230" width="51.2" height="68" as="geometry" />
        </mxCell>
        <mxCell id="8j1ghaPHFoplYqHseJS_-16" value="" style="edgeStyle=orthogonalEdgeStyle;rounded=0;orthogonalLoop=1;jettySize=auto;html=1;" parent="1" source="8j1ghaPHFoplYqHseJS_-9" target="8j1ghaPHFoplYqHseJS_-15" edge="1">
          <mxGeometry relative="1" as="geometry" />
        </mxCell>
        <mxCell id="8j1ghaPHFoplYqHseJS_-9" value="Port Arrival" style="whiteSpace=wrap;html=1;verticalAlign=middle;dashed=0;fillColor=#d5e8d4;strokeColor=#82b366;" parent="1" vertex="1">
          <mxGeometry x="277.5" y="180" width="120" height="30" as="geometry" />
        </mxCell>
        <mxCell id="8j1ghaPHFoplYqHseJS_-12" value="" style="html=1;verticalLabelPosition=bottom;align=center;labelBackgroundColor=#ffffff;verticalAlign=top;strokeWidth=2;strokeColor=#0080F0;shadow=0;dashed=0;shape=mxgraph.ios7.icons.alarm_clock;" parent="1" vertex="1">
          <mxGeometry x="402.5" y="180" width="27" height="30" as="geometry" />
        </mxCell>
        <mxCell id="8j1ghaPHFoplYqHseJS_-19" value="" style="edgeStyle=orthogonalEdgeStyle;rounded=0;orthogonalLoop=1;jettySize=auto;html=1;" parent="1" source="8j1ghaPHFoplYqHseJS_-15" target="8j1ghaPHFoplYqHseJS_-18" edge="1">
          <mxGeometry relative="1" as="geometry" />
        </mxCell>
        <mxCell id="8j1ghaPHFoplYqHseJS_-15" value="T" style="verticalLabelPosition=middle;shadow=0;dashed=0;align=center;html=1;verticalAlign=middle;strokeWidth=1;shape=ellipse;fontSize=50;fontStyle=1;perimeter=ellipsePerimeter;whiteSpace=wrap;fillColor=#dae8fc;strokeColor=#6c8ebf;" parent="1" vertex="1">
          <mxGeometry x="272.5" y="270" width="130" height="80" as="geometry" />
        </mxCell>
        <mxCell id="8j1ghaPHFoplYqHseJS_-18" value="Terminal Arrival" style="whiteSpace=wrap;html=1;verticalAlign=middle;dashed=0;fillColor=#d5e8d4;strokeColor=#82b366;" parent="1" vertex="1">
          <mxGeometry x="480" y="295" width="120" height="30" as="geometry" />
        </mxCell>
        <mxCell id="8j1ghaPHFoplYqHseJS_-20" value="" style="html=1;verticalLabelPosition=bottom;align=center;labelBackgroundColor=#ffffff;verticalAlign=top;strokeWidth=2;strokeColor=#0080F0;shadow=0;dashed=0;shape=mxgraph.ios7.icons.alarm_clock;" parent="1" vertex="1">
          <mxGeometry x="610" y="295" width="27" height="30" as="geometry" />
        </mxCell>
        <mxCell id="8j1ghaPHFoplYqHseJS_-31" value="" style="edgeStyle=orthogonalEdgeStyle;rounded=0;orthogonalLoop=1;jettySize=auto;html=1;" parent="1" source="8j1ghaPHFoplYqHseJS_-21" target="8j1ghaPHFoplYqHseJS_-22" edge="1">
          <mxGeometry relative="1" as="geometry" />
        </mxCell>
        <mxCell id="8j1ghaPHFoplYqHseJS_-21" value="Dwelling Time&lt;div&gt;&lt;br&gt;&lt;/div&gt;" style="shape=parallelogram;perimeter=parallelogramPerimeter;whiteSpace=wrap;html=1;fixedSize=1;fillColor=#f8cecc;strokeColor=#b85450;align=center;fontStyle=1;verticalAlign=top;" parent="1" vertex="1">
          <mxGeometry x="490" y="190" width="120" height="30" as="geometry" />
        </mxCell>
        <mxCell id="8j1ghaPHFoplYqHseJS_-22" value="Propulsion Consumption" style="shape=process;whiteSpace=wrap;html=1;backgroundOutline=1;fillColor=#fff2cc;strokeColor=#d6b656;fontStyle=1;fontSize=14;" parent="1" vertex="1">
          <mxGeometry x="670" y="195" width="120" height="60" as="geometry" />
        </mxCell>
        <mxCell id="8j1ghaPHFoplYqHseJS_-26" value="" style="edgeStyle=orthogonalEdgeStyle;rounded=0;orthogonalLoop=1;jettySize=auto;html=1;" parent="1" source="8j1ghaPHFoplYqHseJS_-23" target="8j1ghaPHFoplYqHseJS_-25" edge="1">
          <mxGeometry relative="1" as="geometry" />
        </mxCell>
        <mxCell id="8j1ghaPHFoplYqHseJS_-23" value="&lt;font style=&quot;font-size: 19px;&quot;&gt;Terminal&lt;/font&gt;" style="text;strokeColor=none;fillColor=none;html=1;fontSize=24;fontStyle=1;verticalAlign=middle;align=center;" parent="1" vertex="1">
          <mxGeometry x="272.5" y="340" width="130" height="40" as="geometry" />
        </mxCell>
        <mxCell id="8j1ghaPHFoplYqHseJS_-25" value="&lt;b style=&quot;font-size: 23px;&quot;&gt;Berth&lt;/b&gt;" style="ellipse;whiteSpace=wrap;html=1;fontSize=23;fillColor=#dae8fc;strokeColor=#6c8ebf;" parent="1" vertex="1">
          <mxGeometry x="272.5" y="430" width="130" height="80" as="geometry" />
        </mxCell>
        <mxCell id="8j1ghaPHFoplYqHseJS_-28" value="" style="dashed=0;verticalLabelPosition=bottom;verticalAlign=top;align=center;shape=mxgraph.gmdl.sliderDiscrete;barPos=60;strokeColor=#0F9D58;opacity=100;strokeWidth=2;fillColor=#0F9D58;handleSize=10;shadow=0;fontSize=12;fontColor=#ffffff;html=1;" parent="1" vertex="1">
          <mxGeometry x="410" y="430" width="200" height="45" as="geometry" />
        </mxCell>
        <mxCell id="8j1ghaPHFoplYqHseJS_-29" value="" style="verticalLabelPosition=bottom;outlineConnect=0;align=center;dashed=0;html=1;verticalAlign=top;shape=mxgraph.pid.misc.ship;fillColor=#f8cecc;strokeColor=#b85450;" parent="1" vertex="1">
          <mxGeometry x="620" y="422.5" width="105" height="60" as="geometry" />
        </mxCell>
        <mxCell id="8j1ghaPHFoplYqHseJS_-30" value="Berth Arrival" style="whiteSpace=wrap;html=1;verticalAlign=middle;dashed=0;fillColor=#d5e8d4;strokeColor=#82b366;" parent="1" vertex="1">
          <mxGeometry x="480" y="390" width="120" height="30" as="geometry" />
        </mxCell>
        <mxCell id="8j1ghaPHFoplYqHseJS_-33" value="Berth Departure" style="whiteSpace=wrap;html=1;verticalAlign=middle;dashed=0;fillColor=#d5e8d4;strokeColor=#82b366;" parent="1" vertex="1">
          <mxGeometry x="480" y="511" width="120" height="30" as="geometry" />
        </mxCell>
        <mxCell id="8j1ghaPHFoplYqHseJS_-34" value="" style="html=1;verticalLabelPosition=bottom;align=center;labelBackgroundColor=#ffffff;verticalAlign=top;strokeWidth=2;strokeColor=#0080F0;shadow=0;dashed=0;shape=mxgraph.ios7.icons.alarm_clock;" parent="1" vertex="1">
          <mxGeometry x="610" y="392.5" width="27" height="30" as="geometry" />
        </mxCell>
        <mxCell id="8j1ghaPHFoplYqHseJS_-35" value="" style="html=1;verticalLabelPosition=bottom;align=center;labelBackgroundColor=#ffffff;verticalAlign=top;strokeWidth=2;strokeColor=#0080F0;shadow=0;dashed=0;shape=mxgraph.ios7.icons.alarm_clock;" parent="1" vertex="1">
          <mxGeometry x="610" y="510" width="27" height="30" as="geometry" />
        </mxCell>
        <mxCell id="8j1ghaPHFoplYqHseJS_-49" value="" style="edgeStyle=orthogonalEdgeStyle;rounded=0;orthogonalLoop=1;jettySize=auto;html=1;" parent="1" source="8j1ghaPHFoplYqHseJS_-37" target="8j1ghaPHFoplYqHseJS_-48" edge="1">
          <mxGeometry relative="1" as="geometry" />
        </mxCell>
        <mxCell id="8j1ghaPHFoplYqHseJS_-37" value="" style="strokeWidth=2;html=1;shape=mxgraph.flowchart.annotation_2;align=left;labelPosition=right;pointerEvents=1;rotation=-180;" parent="1" vertex="1">
          <mxGeometry x="645.08" y="404.5" width="180.04" height="135.5" as="geometry" />
        </mxCell>
        <mxCell id="8j1ghaPHFoplYqHseJS_-44" value="" style="strokeWidth=2;html=1;shape=mxgraph.flowchart.annotation_2;align=left;labelPosition=right;pointerEvents=1;rotation=141;" parent="1" vertex="1">
          <mxGeometry x="462.23" y="186.29" width="50" height="100" as="geometry" />
        </mxCell>
        <mxCell id="8j1ghaPHFoplYqHseJS_-51" value="" style="edgeStyle=orthogonalEdgeStyle;rounded=0;orthogonalLoop=1;jettySize=auto;html=1;" parent="1" source="8j1ghaPHFoplYqHseJS_-48" target="8j1ghaPHFoplYqHseJS_-50" edge="1">
          <mxGeometry relative="1" as="geometry" />
        </mxCell>
        <mxCell id="8j1ghaPHFoplYqHseJS_-48" value="&lt;b&gt;&lt;font style=&quot;font-size: 14px;&quot;&gt;Docking Time&lt;/font&gt;&lt;/b&gt;" style="shape=parallelogram;perimeter=parallelogramPerimeter;whiteSpace=wrap;html=1;fixedSize=1;align=center;strokeWidth=2;pointerEvents=1;fillColor=#f8cecc;strokeColor=#b85450;" parent="1" vertex="1">
          <mxGeometry x="935.14" y="442.25" width="120" height="60" as="geometry" />
        </mxCell>
        <mxCell id="8j1ghaPHFoplYqHseJS_-54" value="" style="edgeStyle=orthogonalEdgeStyle;rounded=0;orthogonalLoop=1;jettySize=auto;html=1;" parent="1" source="8j1ghaPHFoplYqHseJS_-50" target="8j1ghaPHFoplYqHseJS_-53" edge="1">
          <mxGeometry relative="1" as="geometry" />
        </mxCell>
        <mxCell id="8j1ghaPHFoplYqHseJS_-50" value="Cold Ironing" style="shape=process;whiteSpace=wrap;html=1;backgroundOutline=1;fillColor=#fff2cc;strokeColor=#d6b656;fontStyle=1;fontSize=14;" parent="1" vertex="1">
          <mxGeometry x="935.14" y="310" width="120" height="60" as="geometry" />
        </mxCell>
        <mxCell id="8j1ghaPHFoplYqHseJS_-92" value="" style="edgeStyle=orthogonalEdgeStyle;rounded=0;orthogonalLoop=1;jettySize=auto;html=1;" parent="1" source="8j1ghaPHFoplYqHseJS_-52" target="8j1ghaPHFoplYqHseJS_-90" edge="1">
          <mxGeometry relative="1" as="geometry">
            <Array as="points">
              <mxPoint x="1280" y="225" />
              <mxPoint x="1280" y="94" />
            </Array>
          </mxGeometry>
        </mxCell>
        <mxCell id="-p1JDaWNhqQrQUc1UP5E-4" style="edgeStyle=orthogonalEdgeStyle;rounded=0;orthogonalLoop=1;jettySize=auto;html=1;exitX=1;exitY=0.5;exitDx=0;exitDy=0;entryX=0;entryY=0.5;entryDx=0;entryDy=0;" edge="1" parent="1" source="8j1ghaPHFoplYqHseJS_-52" target="-p1JDaWNhqQrQUc1UP5E-3">
          <mxGeometry relative="1" as="geometry" />
        </mxCell>
        <mxCell id="8j1ghaPHFoplYqHseJS_-52" value="Energy Consumption" style="shape=process;whiteSpace=wrap;html=1;backgroundOutline=1;fillColor=#fff2cc;strokeColor=#d6b656;fontStyle=1;fontSize=14;" parent="1" vertex="1">
          <mxGeometry x="1110" y="195" width="120" height="60" as="geometry" />
        </mxCell>
        <mxCell id="8j1ghaPHFoplYqHseJS_-61" value="" style="edgeStyle=orthogonalEdgeStyle;rounded=0;orthogonalLoop=1;jettySize=auto;html=1;" parent="1" source="8j1ghaPHFoplYqHseJS_-53" target="8j1ghaPHFoplYqHseJS_-52" edge="1">
          <mxGeometry relative="1" as="geometry" />
        </mxCell>
        <mxCell id="8j1ghaPHFoplYqHseJS_-53" value="" style="verticalLabelPosition=bottom;verticalAlign=top;html=1;shape=mxgraph.flowchart.summing_function;" parent="1" vertex="1">
          <mxGeometry x="975.14" y="205" width="40" height="40" as="geometry" />
        </mxCell>
        <mxCell id="8j1ghaPHFoplYqHseJS_-60" style="edgeStyle=orthogonalEdgeStyle;rounded=0;orthogonalLoop=1;jettySize=auto;html=1;exitX=1;exitY=0.5;exitDx=0;exitDy=0;entryX=0;entryY=0.5;entryDx=0;entryDy=0;entryPerimeter=0;" parent="1" source="8j1ghaPHFoplYqHseJS_-22" target="8j1ghaPHFoplYqHseJS_-53" edge="1">
          <mxGeometry relative="1" as="geometry">
            <mxPoint x="970" y="226" as="targetPoint" />
            <Array as="points">
              <mxPoint x="850" y="225" />
              <mxPoint x="975" y="226" />
            </Array>
          </mxGeometry>
        </mxCell>
        <mxCell id="8j1ghaPHFoplYqHseJS_-79" value="" style="edgeStyle=orthogonalEdgeStyle;rounded=0;orthogonalLoop=1;jettySize=auto;html=1;" parent="1" source="8j1ghaPHFoplYqHseJS_-62" target="8j1ghaPHFoplYqHseJS_-52" edge="1">
          <mxGeometry relative="1" as="geometry" />
        </mxCell>
        <mxCell id="8j1ghaPHFoplYqHseJS_-62" value="" style="image;aspect=fixed;html=1;points=[];align=center;fontSize=12;image=img/lib/azure2/iot/Time_Series_Data_Sets.svg;" parent="1" vertex="1">
          <mxGeometry x="1144.4" y="50" width="51.2" height="68" as="geometry" />
        </mxCell>
        <mxCell id="8j1ghaPHFoplYqHseJS_-77" value="" style="edgeStyle=orthogonalEdgeStyle;rounded=0;orthogonalLoop=1;jettySize=auto;html=1;" parent="1" source="8j1ghaPHFoplYqHseJS_-64" target="8j1ghaPHFoplYqHseJS_-5" edge="1">
          <mxGeometry relative="1" as="geometry" />
        </mxCell>
        <mxCell id="8j1ghaPHFoplYqHseJS_-64" value="Vessel Details" style="swimlane;fontStyle=0;childLayout=stackLayout;horizontal=1;startSize=10;fillColor=#60a917;horizontalStack=0;resizeParent=1;resizeParentMax=0;resizeLast=0;collapsible=1;marginBottom=0;html=1;align=center;fontColor=#ffffff;strokeColor=#2D7600;" parent="1" vertex="1">
          <mxGeometry x="590" y="50" width="140" height="88" as="geometry" />
        </mxCell>
        <mxCell id="8j1ghaPHFoplYqHseJS_-65" value="Vessel Position" style="text;strokeColor=none;fillColor=none;align=left;verticalAlign=top;spacingLeft=4;spacingRight=4;overflow=hidden;rotatable=0;points=[[0,0.5],[1,0.5]];portConstraint=eastwest;whiteSpace=wrap;html=1;labelBorderColor=default;textShadow=1;" parent="8j1ghaPHFoplYqHseJS_-64" vertex="1">
          <mxGeometry y="10" width="140" height="26" as="geometry" />
        </mxCell>
        <mxCell id="8j1ghaPHFoplYqHseJS_-66" value="Vessel Category" style="text;strokeColor=none;fillColor=none;align=left;verticalAlign=top;spacingLeft=4;spacingRight=4;overflow=hidden;rotatable=0;points=[[0,0.5],[1,0.5]];portConstraint=eastwest;whiteSpace=wrap;html=1;labelBorderColor=default;textShadow=1;" parent="8j1ghaPHFoplYqHseJS_-64" vertex="1">
          <mxGeometry y="36" width="140" height="26" as="geometry" />
        </mxCell>
        <mxCell id="8j1ghaPHFoplYqHseJS_-67" value="Operator Details" style="text;strokeColor=none;fillColor=none;align=left;verticalAlign=top;spacingLeft=4;spacingRight=4;overflow=hidden;rotatable=0;points=[[0,0.5],[1,0.5]];portConstraint=eastwest;whiteSpace=wrap;html=1;labelBorderColor=default;textShadow=1;" parent="8j1ghaPHFoplYqHseJS_-64" vertex="1">
          <mxGeometry y="62" width="140" height="26" as="geometry" />
        </mxCell>
        <mxCell id="8j1ghaPHFoplYqHseJS_-68" value="Place Details" style="swimlane;fontStyle=0;childLayout=stackLayout;horizontal=1;startSize=10;fillColor=#60a917;horizontalStack=0;resizeParent=1;resizeParentMax=0;resizeLast=0;collapsible=1;marginBottom=0;html=1;align=center;fontColor=#ffffff;strokeColor=#2D7600;" parent="1" vertex="1">
          <mxGeometry x="50" y="325" width="140" height="88" as="geometry" />
        </mxCell>
        <mxCell id="8j1ghaPHFoplYqHseJS_-69" value="Place Geometry" style="text;strokeColor=none;fillColor=none;align=left;verticalAlign=top;spacingLeft=4;spacingRight=4;overflow=hidden;rotatable=0;points=[[0,0.5],[1,0.5]];portConstraint=eastwest;whiteSpace=wrap;html=1;labelBorderColor=default;textShadow=1;" parent="8j1ghaPHFoplYqHseJS_-68" vertex="1">
          <mxGeometry y="10" width="140" height="26" as="geometry" />
        </mxCell>
        <mxCell id="8j1ghaPHFoplYqHseJS_-70" value="Vessel Activity" style="text;strokeColor=none;fillColor=none;align=left;verticalAlign=top;spacingLeft=4;spacingRight=4;overflow=hidden;rotatable=0;points=[[0,0.5],[1,0.5]];portConstraint=eastwest;whiteSpace=wrap;html=1;labelBorderColor=default;textShadow=1;" parent="8j1ghaPHFoplYqHseJS_-68" vertex="1">
          <mxGeometry y="36" width="140" height="26" as="geometry" />
        </mxCell>
        <mxCell id="8j1ghaPHFoplYqHseJS_-71" value="Operator Details" style="text;strokeColor=none;fillColor=none;align=left;verticalAlign=top;spacingLeft=4;spacingRight=4;overflow=hidden;rotatable=0;points=[[0,0.5],[1,0.5]];portConstraint=eastwest;whiteSpace=wrap;html=1;labelBorderColor=default;textShadow=1;" parent="8j1ghaPHFoplYqHseJS_-68" vertex="1">
          <mxGeometry y="62" width="140" height="26" as="geometry" />
        </mxCell>
        <mxCell id="8j1ghaPHFoplYqHseJS_-78" value="" style="edgeStyle=orthogonalEdgeStyle;rounded=0;orthogonalLoop=1;jettySize=auto;html=1;" parent="1" source="8j1ghaPHFoplYqHseJS_-72" target="8j1ghaPHFoplYqHseJS_-62" edge="1">
          <mxGeometry relative="1" as="geometry" />
        </mxCell>
        <mxCell id="8j1ghaPHFoplYqHseJS_-72" value="Vessel Details" style="swimlane;fontStyle=0;childLayout=stackLayout;horizontal=1;startSize=10;fillColor=#60a917;horizontalStack=0;resizeParent=1;resizeParentMax=0;resizeLast=0;collapsible=1;marginBottom=0;html=1;align=center;fontColor=#ffffff;strokeColor=#2D7600;" parent="1" vertex="1">
          <mxGeometry x="940" y="40" width="140" height="88" as="geometry" />
        </mxCell>
        <mxCell id="8j1ghaPHFoplYqHseJS_-73" value="Vessel Type" style="text;strokeColor=none;fillColor=none;align=left;verticalAlign=top;spacingLeft=4;spacingRight=4;overflow=hidden;rotatable=0;points=[[0,0.5],[1,0.5]];portConstraint=eastwest;whiteSpace=wrap;html=1;labelBorderColor=default;textShadow=1;" parent="8j1ghaPHFoplYqHseJS_-72" vertex="1">
          <mxGeometry y="10" width="140" height="26" as="geometry" />
        </mxCell>
        <mxCell id="8j1ghaPHFoplYqHseJS_-74" value="Gross Tonnage/DWT" style="text;strokeColor=none;fillColor=none;align=left;verticalAlign=top;spacingLeft=4;spacingRight=4;overflow=hidden;rotatable=0;points=[[0,0.5],[1,0.5]];portConstraint=eastwest;whiteSpace=wrap;html=1;labelBorderColor=default;textShadow=1;" parent="8j1ghaPHFoplYqHseJS_-72" vertex="1">
          <mxGeometry y="36" width="140" height="26" as="geometry" />
        </mxCell>
        <mxCell id="8j1ghaPHFoplYqHseJS_-75" value="Engine Information" style="text;strokeColor=none;fillColor=none;align=left;verticalAlign=top;spacingLeft=4;spacingRight=4;overflow=hidden;rotatable=0;points=[[0,0.5],[1,0.5]];portConstraint=eastwest;whiteSpace=wrap;html=1;labelBorderColor=default;textShadow=1;" parent="8j1ghaPHFoplYqHseJS_-72" vertex="1">
          <mxGeometry y="62" width="140" height="26" as="geometry" />
        </mxCell>
        <mxCell id="8j1ghaPHFoplYqHseJS_-83" style="edgeStyle=orthogonalEdgeStyle;rounded=0;orthogonalLoop=1;jettySize=auto;html=1;exitX=0;exitY=0.5;exitDx=0;exitDy=0;" parent="1" source="8j1ghaPHFoplYqHseJS_-81" target="8j1ghaPHFoplYqHseJS_-50" edge="1">
          <mxGeometry relative="1" as="geometry" />
        </mxCell>
        <mxCell id="8j1ghaPHFoplYqHseJS_-84" value="" style="edgeStyle=orthogonalEdgeStyle;rounded=0;orthogonalLoop=1;jettySize=auto;html=1;" parent="1" source="8j1ghaPHFoplYqHseJS_-81" target="8j1ghaPHFoplYqHseJS_-52" edge="1">
          <mxGeometry relative="1" as="geometry" />
        </mxCell>
        <mxCell id="8j1ghaPHFoplYqHseJS_-81" value="" style="image;html=1;image=img/lib/clip_art/computers/Database_128x128.png" parent="1" vertex="1">
          <mxGeometry x="1130" y="300" width="80" height="80" as="geometry" />
        </mxCell>
        <mxCell id="8j1ghaPHFoplYqHseJS_-85" value="" style="edgeStyle=orthogonalEdgeStyle;rounded=0;orthogonalLoop=1;jettySize=auto;html=1;" parent="1" source="8j1ghaPHFoplYqHseJS_-82" target="8j1ghaPHFoplYqHseJS_-81" edge="1">
          <mxGeometry relative="1" as="geometry" />
        </mxCell>
        <mxCell id="8j1ghaPHFoplYqHseJS_-82" value="&lt;b&gt;&lt;font style=&quot;font-size: 13px;&quot;&gt;Internal Business Database Mapping&lt;/font&gt;&lt;/b&gt;" style="shape=document;whiteSpace=wrap;html=1;boundedLbl=1;fillColor=#1ba1e2;fontColor=#ffffff;strokeColor=#006EAF;" parent="1" vertex="1">
          <mxGeometry x="1110" y="420" width="120" height="80" as="geometry" />
        </mxCell>
        <mxCell id="8j1ghaPHFoplYqHseJS_-86" value="Business Database" style="swimlane;fontStyle=0;childLayout=stackLayout;horizontal=1;startSize=10;fillColor=#0050ef;horizontalStack=0;resizeParent=1;resizeParentMax=0;resizeLast=0;collapsible=1;marginBottom=0;html=1;align=center;fontColor=#ffffff;strokeColor=#001DBC;" parent="1" vertex="1">
          <mxGeometry x="1250" y="416" width="180" height="88" as="geometry" />
        </mxCell>
        <mxCell id="8j1ghaPHFoplYqHseJS_-87" value="Cold Ironing/Propulsion KW" style="text;strokeColor=none;fillColor=none;align=left;verticalAlign=top;spacingLeft=4;spacingRight=4;overflow=hidden;rotatable=0;points=[[0,0.5],[1,0.5]];portConstraint=eastwest;whiteSpace=wrap;html=1;labelBorderColor=default;textShadow=1;" parent="8j1ghaPHFoplYqHseJS_-86" vertex="1">
          <mxGeometry y="10" width="180" height="26" as="geometry" />
        </mxCell>
        <mxCell id="8j1ghaPHFoplYqHseJS_-88" value="Future Energy Consumption" style="text;strokeColor=none;fillColor=none;align=left;verticalAlign=top;spacingLeft=4;spacingRight=4;overflow=hidden;rotatable=0;points=[[0,0.5],[1,0.5]];portConstraint=eastwest;whiteSpace=wrap;html=1;labelBorderColor=default;textShadow=1;" parent="8j1ghaPHFoplYqHseJS_-86" vertex="1">
          <mxGeometry y="36" width="180" height="26" as="geometry" />
        </mxCell>
        <mxCell id="8j1ghaPHFoplYqHseJS_-89" value="Formula" style="text;strokeColor=none;fillColor=none;align=left;verticalAlign=top;spacingLeft=4;spacingRight=4;overflow=hidden;rotatable=0;points=[[0,0.5],[1,0.5]];portConstraint=eastwest;whiteSpace=wrap;html=1;labelBorderColor=default;textShadow=1;" parent="8j1ghaPHFoplYqHseJS_-86" vertex="1">
          <mxGeometry y="62" width="180" height="26" as="geometry" />
        </mxCell>
        <mxCell id="-p1JDaWNhqQrQUc1UP5E-2" value="" style="edgeStyle=orthogonalEdgeStyle;rounded=0;orthogonalLoop=1;jettySize=auto;html=1;" edge="1" parent="1" source="8j1ghaPHFoplYqHseJS_-90" target="-p1JDaWNhqQrQUc1UP5E-1">
          <mxGeometry relative="1" as="geometry" />
        </mxCell>
        <mxCell id="8j1ghaPHFoplYqHseJS_-90" value="Emission&lt;div&gt;Calculator&lt;/div&gt;" style="shape=process;whiteSpace=wrap;html=1;backgroundOutline=1;fillColor=#fff2cc;strokeColor=#d6b656;fontStyle=1;fontSize=14;" parent="1" vertex="1">
          <mxGeometry x="1340" y="64" width="120" height="60" as="geometry" />
        </mxCell>
        <mxCell id="8j1ghaPHFoplYqHseJS_-93" value="" style="verticalLabelPosition=bottom;aspect=fixed;html=1;shape=mxgraph.salesforce.energy;" parent="1" vertex="1">
          <mxGeometry x="1240" y="187.5" width="26.25" height="35" as="geometry" />
        </mxCell>
        <mxCell id="8j1ghaPHFoplYqHseJS_-94" value="" style="outlineConnect=0;dashed=0;verticalLabelPosition=bottom;verticalAlign=top;align=center;html=1;shape=mxgraph.aws3.emr_engine;fillColor=#F58534;gradientColor=none;" parent="1" vertex="1">
          <mxGeometry x="710" y="165" width="40" height="30" as="geometry" />
        </mxCell>
        <mxCell id="8j1ghaPHFoplYqHseJS_-96" value="" style="shape=mxgraph.signs.travel.hotel;html=1;pointerEvents=1;fillColor=#000000;strokeColor=none;verticalLabelPosition=bottom;verticalAlign=top;align=center;" parent="1" vertex="1">
          <mxGeometry x="945.14" y="290" width="30" height="20" as="geometry" />
        </mxCell>
        <mxCell id="-p1JDaWNhqQrQUc1UP5E-1" value="CO2, SO2, NOx&lt;div&gt;CH4&lt;/div&gt;" style="ellipse;shape=cloud;whiteSpace=wrap;html=1;fillColor=#e51400;fontColor=#ffffff;strokeColor=#B20000;" vertex="1" parent="1">
          <mxGeometry x="1520" y="54" width="120" height="80" as="geometry" />
        </mxCell>
        <mxCell id="-p1JDaWNhqQrQUc1UP5E-6" value="" style="edgeStyle=orthogonalEdgeStyle;rounded=0;orthogonalLoop=1;jettySize=auto;html=1;" edge="1" parent="1" source="-p1JDaWNhqQrQUc1UP5E-3" target="-p1JDaWNhqQrQUc1UP5E-5">
          <mxGeometry relative="1" as="geometry" />
        </mxCell>
        <mxCell id="-p1JDaWNhqQrQUc1UP5E-3" value="Revenue&lt;div&gt;Calculator&lt;/div&gt;" style="shape=process;whiteSpace=wrap;html=1;backgroundOutline=1;fillColor=#fff2cc;strokeColor=#d6b656;fontStyle=1;fontSize=14;" vertex="1" parent="1">
          <mxGeometry x="1340" y="270" width="120" height="60" as="geometry" />
        </mxCell>
        <mxCell id="-p1JDaWNhqQrQUc1UP5E-5" value="" style="shape=image;html=1;verticalAlign=top;verticalLabelPosition=bottom;labelBackgroundColor=#ffffff;imageAspect=0;aspect=fixed;image=https://cdn0.iconfinder.com/data/icons/business-startup-10/50/29-128.png" vertex="1" parent="1">
          <mxGeometry x="1550" y="261.5" width="77" height="77" as="geometry" />
        </mxCell>
      </root>
    </mxGraphModel>
  </diagram>
</mxfile>
